<svg width="1360" height="440" viewBox="0 0 680 220" xmlns="http://www.w3.org/2000/svg" style="background:#060c10;">
  <defs>
    <clipPath id="banner-clip"><rect width="680" height="220"/></clipPath>
  </defs>

  <g clip-path="url(#banner-clip)">

    <!-- Grid vertical -->
    <line x1="68" y1="0" x2="68" y2="220" stroke="#00dcff" stroke-width="0.4" opacity="0.12"/>
    <line x1="136" y1="0" x2="136" y2="220" stroke="#00dcff" stroke-width="0.4" opacity="0.12"/>
    <line x1="204" y1="0" x2="204" y2="220" stroke="#00dcff" stroke-width="0.4" opacity="0.12"/>
    <line x1="272" y1="0" x2="272" y2="220" stroke="#00dcff" stroke-width="0.4" opacity="0.12"/>
    <line x1="340" y1="0" x2="340" y2="220" stroke="#00dcff" stroke-width="0.4" opacity="0.12"/>
    <line x1="408" y1="0" x2="408" y2="220" stroke="#00dcff" stroke-width="0.4" opacity="0.12"/>
    <line x1="476" y1="0" x2="476" y2="220" stroke="#00dcff" stroke-width="0.4" opacity="0.12"/>
    <line x1="544" y1="0" x2="544" y2="220" stroke="#00dcff" stroke-width="0.4" opacity="0.12"/>
    <line x1="612" y1="0" x2="612" y2="220" stroke="#00dcff" stroke-width="0.4" opacity="0.12"/>

    <!-- Grid horizontal -->
    <line x1="0" y1="44" x2="680" y2="44" stroke="#00dcff" stroke-width="0.4" opacity="0.12"/>
    <line x1="0" y1="88" x2="680" y2="88" stroke="#00dcff" stroke-width="0.4" opacity="0.12"/>
    <line x1="0" y1="110" x2="680" y2="110" stroke="#00dcff" stroke-width="0.4" opacity="0.12"/>
    <line x1="0" y1="132" x2="680" y2="132" stroke="#00dcff" stroke-width="0.4" opacity="0.12"/>
    <line x1="0" y1="176" x2="680" y2="176" stroke="#00dcff" stroke-width="0.4" opacity="0.12"/>

    <!-- Outer glow ring -->
    <circle cx="340" cy="108" r="88" fill="none" stroke="#00dcff" stroke-width="0.5" opacity="0.08"/>

    <!-- Concentric rings -->
    <circle cx="340" cy="108" r="72" fill="none" stroke="#00dcff" stroke-width="0.8" opacity="0.18"/>
    <circle cx="340" cy="108" r="56" fill="none" stroke="#00dcff" stroke-width="1" opacity="0.35"/>
    <circle cx="340" cy="108" r="42" fill="#060e14" stroke="#00dcff" stroke-width="1.4"/>
    <circle cx="340" cy="108" r="40" fill="#071218" stroke="none"/>
    <circle cx="340" cy="108" r="28" fill="none" stroke="#00dcff" stroke-width="0.6" opacity="0.5"/>

    <!-- Crosshair -->
    <line x1="340" y1="72" x2="340" y2="88" stroke="#00dcff" stroke-width="1.2" opacity="0.9"/>
    <line x1="340" y1="128" x2="340" y2="144" stroke="#00dcff" stroke-width="1.2" opacity="0.9"/>
    <line x1="304" y1="108" x2="320" y2="108" stroke="#00dcff" stroke-width="1.2" opacity="0.9"/>
    <line x1="360" y1="108" x2="376" y2="108" stroke="#00dcff" stroke-width="1.2" opacity="0.9"/>
    <circle cx="340" cy="108" r="3" fill="#00dcff" opacity="0.9"/>

    <!-- Left scan line -->
    <line x1="50" y1="108" x2="268" y2="108" stroke="#00dcff" stroke-width="0.8" opacity="0.5"/>
    <circle cx="268" cy="108" r="3" fill="#00dcff" opacity="0.8"/>
    <line x1="90"  y1="104" x2="90"  y2="112" stroke="#00dcff" stroke-width="0.6" opacity="0.3"/>
    <line x1="130" y1="105" x2="130" y2="111" stroke="#00dcff" stroke-width="0.6" opacity="0.3"/>
    <line x1="170" y1="105" x2="170" y2="111" stroke="#00dcff" stroke-width="0.6" opacity="0.3"/>
    <line x1="210" y1="104" x2="210" y2="112" stroke="#00dcff" stroke-width="0.6" opacity="0.3"/>
    <line x1="240" y1="105" x2="240" y2="111" stroke="#00dcff" stroke-width="0.6" opacity="0.3"/>

    <!-- Right scan line -->
    <circle cx="412" cy="108" r="3" fill="#00dcff" opacity="0.8"/>
    <line x1="412" y1="108" x2="630" y2="108" stroke="#00dcff" stroke-width="0.8" opacity="0.5"/>
    <line x1="440" y1="105" x2="440" y2="111" stroke="#00dcff" stroke-width="0.6" opacity="0.3"/>
    <line x1="470" y1="104" x2="470" y2="112" stroke="#00dcff" stroke-width="0.6" opacity="0.3"/>
    <line x1="510" y1="105" x2="510" y2="111" stroke="#00dcff" stroke-width="0.6" opacity="0.3"/>
    <line x1="550" y1="104" x2="550" y2="112" stroke="#00dcff" stroke-width="0.6" opacity="0.3"/>
    <line x1="590" y1="105" x2="590" y2="111" stroke="#00dcff" stroke-width="0.6" opacity="0.3"/>

    <!-- Header text -->
    <text x="340" y="26" text-anchor="middle"
      font-family="'Courier New', Courier, monospace"
      font-size="9.5" font-weight="400" fill="#00dcff" opacity="0.55"
      letter-spacing="5">PERSONAL OPERATIONS &amp; TACTICAL TASK SYSTEM</text>

    <!-- SYS.ONLINE -->
    <circle cx="48" cy="186" r="4.5" fill="#00e676"/>
    <text x="58" y="190"
      font-family="'Courier New', Courier, monospace"
      font-size="10" fill="#00e676" letter-spacing="1.5">SYS.ONLINE</text>

    <!-- AI.ROUTING -->
    <circle cx="570" cy="186" r="4.5" fill="#fbbf24"/>
    <text x="580" y="190"
      font-family="'Courier New', Courier, monospace"
      font-size="10" fill="#fbbf24" letter-spacing="1.5">AI.ROUTING</text>

    <!-- P.O.T.T.S. title -->
    <text x="340" y="199" text-anchor="middle"
      font-family="'Courier New', Courier, monospace"
      font-size="34" font-weight="700" fill="#00dcff"
      letter-spacing="18" opacity="0.95">P.O.T.T.S.</text>

    <!-- Corner brackets -->
    <path d="M18 18 L18 38 M18 18 L38 18" fill="none" stroke="#00dcff" stroke-width="1" opacity="0.35"/>
    <path d="M662 18 L662 38 M662 18 L642 18" fill="none" stroke="#00dcff" stroke-width="1" opacity="0.35"/>
    <path d="M18 202 L18 182 M18 202 L38 202" fill="none" stroke="#00dcff" stroke-width="1" opacity="0.35"/>
    <path d="M662 202 L662 182 M662 202 L642 202" fill="none" stroke="#00dcff" stroke-width="1" opacity="0.35"/>

  </g>
</svg>
