<svg width="1360" height="560" viewBox="0 0 680 280" xmlns="http://www.w3.org/2000/svg">
<defs>
  <clipPath id="mc"><rect width="680" height="280"/></clipPath>
  <linearGradient id="bgmain" x1="0" y1="0" x2="0" y2="1">
    <stop offset="0%" stop-color="#060810"/>
    <stop offset="100%" stop-color="#09111c"/>
  </linearGradient>
  <linearGradient id="topbar" x1="0" y1="0" x2="1" y2="0">
    <stop offset="0%" stop-color="#00a8ff" stop-opacity="0"/>
    <stop offset="30%" stop-color="#00a8ff" stop-opacity="0.7"/>
    <stop offset="70%" stop-color="#00a8ff" stop-opacity="0.7"/>
    <stop offset="100%" stop-color="#00a8ff" stop-opacity="0"/>
  </linearGradient>
</defs>
<g clip-path="url(#mc)">
  <rect width="680" height="280" fill="url(#bgmain)"/>

  <!-- Dot grid -->
  <g opacity="0.07" fill="#ffffff">
    <g id="dr">
      <circle cx="40" cy="0" r="0.9"/><circle cx="80" cy="0" r="0.9"/><circle cx="120" cy="0" r="0.9"/>
      <circle cx="160" cy="0" r="0.9"/><circle cx="200" cy="0" r="0.9"/><circle cx="240" cy="0" r="0.9"/>
      <circle cx="280" cy="0" r="0.9"/><circle cx="320" cy="0" r="0.9"/><circle cx="360" cy="0" r="0.9"/>
      <circle cx="400" cy="0" r="0.9"/><circle cx="440" cy="0" r="0.9"/><circle cx="480" cy="0" r="0.9"/>
      <circle cx="520" cy="0" r="0.9"/><circle cx="560" cy="0" r="0.9"/><circle cx="600" cy="0" r="0.9"/>
      <circle cx="640" cy="0" r="0.9"/>
    </g>
    <use href="#dr" transform="translate(0,40)"/><use href="#dr" transform="translate(0,80)"/>
    <use href="#dr" transform="translate(0,120)"/><use href="#dr" transform="translate(0,160)"/>
    <use href="#dr" transform="translate(0,200)"/><use href="#dr" transform="translate(0,240)"/>
    <use href="#dr" transform="translate(0,280)"/>
  </g>

  <!-- Frame -->
  <polygon points="14,4 666,4 676,14 676,266 666,276 14,276 4,266 4,14"
    fill="none" stroke="#00a8ff" stroke-width="1" opacity="0.5"/>
  <polygon points="4,14 14,4 14,11 9,16"           fill="#00a8ff" opacity="0.4"/>
  <polygon points="676,14 666,4 666,11 671,16"      fill="#00a8ff" opacity="0.4"/>
  <polygon points="4,266 14,276 14,269 9,264"       fill="#00a8ff" opacity="0.4"/>
  <polygon points="676,266 666,276 666,269 671,264" fill="#00a8ff" opacity="0.4"/>
  <line x1="0" y1="4" x2="680" y2="4" stroke="url(#topbar)" stroke-width="1.5"/>
  <line x1="4"   y1="20" x2="80"  y2="20" stroke="#00a8ff" stroke-width="0.7" opacity="0.45"/>
  <line x1="600" y1="20" x2="676" y2="20" stroke="#00a8ff" stroke-width="0.7" opacity="0.45"/>
  <line x1="4"   y1="260" x2="80"  y2="260" stroke="#00a8ff" stroke-width="0.7" opacity="0.45"/>
  <line x1="600" y1="260" x2="676" y2="260" stroke="#00a8ff" stroke-width="0.7" opacity="0.45"/>

  <!-- Connectors -->
  <line x1="222" y1="130" x2="288" y2="130" stroke="#00a8ff" stroke-width="0.6" opacity="0.35"/>
  <line x1="392" y1="130" x2="458" y2="130" stroke="#00a8ff" stroke-width="0.6" opacity="0.35"/>
  <circle cx="255" cy="130" r="2" fill="#00a8ff" opacity="0.4"/>
  <circle cx="425" cy="130" r="2" fill="#00a8ff" opacity="0.4"/>

  <!-- CAPTAIN AMERICA SHIELD -->
  <circle cx="170" cy="130" r="55" fill="#0a1020" stroke="#334466" stroke-width="0.5" opacity="0.6"/>
  <circle cx="170" cy="130" r="52" fill="#cc1111"/>
  <circle cx="170" cy="130" r="40" fill="#e8e8e8"/>
  <circle cx="170" cy="130" r="29" fill="#cc1111"/>
  <circle cx="170" cy="130" r="18" fill="#1a3a9e"/>
  <circle cx="170" cy="130" r="52" fill="none" stroke="#aab8cc" stroke-width="1.2" opacity="0.6"/>
  <circle cx="170" cy="130" r="40" fill="none" stroke="#aab8cc" stroke-width="0.5" opacity="0.3"/>
  <circle cx="170" cy="130" r="29" fill="none" stroke="#aab8cc" stroke-width="0.5" opacity="0.3"/>
  <polygon points="170,114 173.8,125.3 185.6,125.3 176.4,132.4 179.8,143.7 170,136.5 160.2,143.7 163.6,132.4 154.4,125.3 166.2,125.3" fill="#e8e8e8"/>
  <circle cx="170" cy="130" r="57" fill="none" stroke="#4488ff" stroke-width="1.2" opacity="0.5"/>
  <circle cx="170" cy="130" r="60" fill="none" stroke="#4488ff" stroke-width="0.4" opacity="0.2"/>
  <text x="170" y="204" text-anchor="middle" font-family="'Courier New',monospace" font-size="9" fill="#4488ff" opacity="0.8" letter-spacing="2">CAPTAIN AMERICA</text>
  <text x="170" y="216" text-anchor="middle" font-family="'Courier New',monospace" font-size="8" fill="#4488ff" opacity="0.5" letter-spacing="1">SHIELD · DEFENSE</text>

  <!-- TONY STARK ARC REACTOR -->
  <circle cx="340" cy="130" r="55" fill="#050d18" stroke="#00c8ff" stroke-width="0.5" opacity="0.5"/>
  <circle cx="340" cy="130" r="52" fill="#060f1e" stroke="#00c8ff" stroke-width="1.5" opacity="0.9"/>
  <circle cx="340" cy="130" r="44" fill="none" stroke="#00a0e0" stroke-width="3" opacity="0.25"/>
  <g stroke="#00c8ff" stroke-width="2.5" stroke-linecap="round" opacity="0.7" fill="none">
    <path d="M340,86 A44,44 0 0,1 357,88"/>
    <path d="M362,93 A44,44 0 0,1 374,103"/>
    <path d="M378,110 A44,44 0 0,1 381,127"/>
    <path d="M380,134 A44,44 0 0,1 374,151"/>
    <path d="M367,159 A44,44 0 0,1 354,168"/>
    <path d="M346,172 A44,44 0 0,1 329,171"/>
    <path d="M321,168 A44,44 0 0,1 308,159"/>
    <path d="M300,150 A44,44 0 0,1 298,133"/>
    <path d="M299,125 A44,44 0 0,1 304,110"/>
    <path d="M309,102 A44,44 0 0,1 321,93"/>
    <path d="M328,88 A44,44 0 0,1 340,86"/>
  </g>
  <circle cx="340" cy="130" r="32" fill="none" stroke="#0088cc" stroke-width="0.8" opacity="0.5"/>
  <polygon points="340,107 359,139 321,139" fill="none" stroke="#00e0ff" stroke-width="1.8" opacity="0.9"/>
  <polygon points="340,107 359,139 321,139" fill="#00c0ff" opacity="0.06"/>
  <circle cx="340" cy="128" r="12" fill="#001830" stroke="#00e0ff" stroke-width="1.2" opacity="0.9"/>
  <circle cx="340" cy="128" r="7"  fill="#00c0ff" opacity="0.35"/>
  <circle cx="340" cy="128" r="3"  fill="#00e8ff" opacity="0.9"/>
  <g stroke="#00c8ff" stroke-width="0.5" opacity="0.3">
    <line x1="340" y1="116" x2="340" y2="88"/><line x1="352" y1="120" x2="368" y2="98"/>
    <line x1="356" y1="130" x2="384" y2="130"/><line x1="352" y1="140" x2="368" y2="162"/>
    <line x1="340" y1="144" x2="340" y2="172"/><line x1="328" y1="140" x2="312" y2="162"/>
    <line x1="324" y1="130" x2="296" y2="130"/><line x1="328" y1="120" x2="312" y2="98"/>
  </g>
  <circle cx="340" cy="130" r="57" fill="none" stroke="#00c8ff" stroke-width="1.4" opacity="0.55"/>
  <circle cx="340" cy="130" r="60" fill="none" stroke="#00c8ff" stroke-width="0.4" opacity="0.2"/>
  <text x="340" y="204" text-anchor="middle" font-family="'Courier New',monospace" font-size="9" fill="#00c8ff" opacity="0.8" letter-spacing="2">TONY STARK</text>
  <text x="340" y="216" text-anchor="middle" font-family="'Courier New',monospace" font-size="8" fill="#00c8ff" opacity="0.5" letter-spacing="1">ARC REACTOR · AI</text>

  <!-- THOR MJOLNIR -->
  <circle cx="510" cy="130" r="55" fill="#120e00" stroke="#aa8800" stroke-width="0.5" opacity="0.5"/>
  <circle cx="510" cy="130" r="52" fill="#16100a" stroke="#ddaa00" stroke-width="1.4" opacity="0.85"/>
  <rect x="486" y="101" width="48" height="32" rx="4" fill="#888888" stroke="#cccccc" stroke-width="1"/>
  <line x1="493" y1="101" x2="493" y2="133" stroke="#aaaaaa" stroke-width="0.7" opacity="0.5"/>
  <line x1="527" y1="101" x2="527" y2="133" stroke="#aaaaaa" stroke-width="0.7" opacity="0.5"/>
  <line x1="486" y1="110" x2="534" y2="110" stroke="#aaaaaa" stroke-width="0.5" opacity="0.4"/>
  <line x1="486" y1="124" x2="534" y2="124" stroke="#aaaaaa" stroke-width="0.5" opacity="0.4"/>
  <text x="510" y="122" text-anchor="middle" font-family="serif" font-size="11" fill="#ddaa00" opacity="0.7">᚛</text>
  <line x1="487" y1="102" x2="533" y2="102" stroke="#eeeeee" stroke-width="1" opacity="0.5"/>
  <line x1="487" y1="132" x2="533" y2="132" stroke="#444444" stroke-width="1" opacity="0.5"/>
  <rect x="504" y="133" width="12" height="38" rx="3" fill="#6a5a3a" stroke="#aa8844" stroke-width="0.8"/>
  <line x1="504" y1="140" x2="516" y2="140" stroke="#ddaa44" stroke-width="1" opacity="0.6"/>
  <line x1="504" y1="147" x2="516" y2="147" stroke="#ddaa44" stroke-width="1" opacity="0.6"/>
  <line x1="504" y1="154" x2="516" y2="154" stroke="#ddaa44" stroke-width="1" opacity="0.6"/>
  <line x1="504" y1="161" x2="516" y2="161" stroke="#ddaa44" stroke-width="1" opacity="0.6"/>
  <ellipse cx="510" cy="171" rx="7" ry="4" fill="none" stroke="#ddaa44" stroke-width="1.2"/>
  <polyline points="468,108 476,118 471,120 480,134 472,136 480,150"
    fill="none" stroke="#ffdd00" stroke-width="1.8" stroke-linejoin="round" stroke-linecap="round" opacity="0.7"/>
  <polyline points="552,108 544,118 549,120 540,134 548,136 540,150"
    fill="none" stroke="#ffdd00" stroke-width="1.8" stroke-linejoin="round" stroke-linecap="round" opacity="0.7"/>
  <circle cx="510" cy="130" r="57" fill="none" stroke="#ddaa00" stroke-width="1.4" opacity="0.55"/>
  <circle cx="510" cy="130" r="60" fill="none" stroke="#ddaa00" stroke-width="0.4" opacity="0.2"/>
  <text x="510" y="204" text-anchor="middle" font-family="'Courier New',monospace" font-size="9" fill="#ddaa00" opacity="0.8" letter-spacing="2">THOR ODINSON</text>
  <text x="510" y="216" text-anchor="middle" font-family="'Courier New',monospace" font-size="8" fill="#ddaa00" opacity="0.5" letter-spacing="1">MJOLNIR · THUNDER</text>

  <!-- Header / Footer -->
  <rect x="200" y="10" width="280" height="18" rx="3" fill="#060e1a" stroke="#00a8ff" stroke-width="0.5" opacity="0.7"/>
  <text x="340" y="22" text-anchor="middle" font-family="'Courier New',monospace" font-size="8" fill="#00a8ff" opacity="0.75" letter-spacing="4">PERSONAL OPERATIONS &amp; TACTICAL TASK SYSTEM</text>
  <line x1="18" y1="232" x2="662" y2="232" stroke="#00a8ff" stroke-width="0.5" opacity="0.25"/>
  <circle cx="26" cy="246" r="4" fill="#22c55e"/>
  <text x="36" y="250" font-family="'Courier New',monospace" font-size="9.5" fill="#22c55e" letter-spacing="1.5">SYS.ONLINE</text>
  <circle cx="490" cy="246" r="4" fill="#fbbf24"/>
  <text x="500" y="250" font-family="'Courier New',monospace" font-size="9.5" fill="#fbbf24" letter-spacing="1.5">AI.ROUTING</text>
  <text x="340" y="254" text-anchor="middle" font-family="'Courier New',monospace" font-size="28" font-weight="700" fill="#00a8ff" letter-spacing="14" opacity="0.95">P.O.T.T.S.</text>
  <text x="340" y="270" text-anchor="middle" font-family="'Courier New',monospace" font-size="7.5" fill="#00a8ff" opacity="0.3" letter-spacing="3">v2.4.0 · CHROME MV3 · GEMINI 1.5 FLASH · 26 FEATURES · $0 FREE</text>
</g>
</svg>
